<svg xmlns="http://www.w3.org/2000/svg" viewBox="0 0 36 36">
  <path fill="#009b3a" d="M36 27c0 2.209-1.791 4-4 4H4c-2.209 0-4-1.791-4-4V9c0-2.209 1.791-4 4-4h28c2.209 0 4 1.791 4 4v18z"/>
  <path fill="#fedf01" d="M32.728 18L18 29.124 3.272 18 18 6.876 32.728 18z"/>
  <circle fill="#002776" cx="17.976" cy="17.924" r="6.458"/>
  <path fill="#CBE9D4" d="M12.277 14.887c-.332.621-.558 1.303-.672 2.023 3.995-.29 9.417 1.891 11.744 4.595.402-.604.7-1.28.883-2.004-2.872-2.731-7.291-4.33-11.955-4.614z"/>
</svg>
